<svg id="Layer_1" data-name="Layer 1" xmlns="http://www.w3.org/2000/svg" viewBox="0 0 190 311"><defs><style>.cls-1{fill:#fff;}.cls-2{fill:#6ad874;}</style></defs><title>Info_creatures</title><rect class="cls-1" x="32" y="21.3" width="144.3" height="144.3" rx="8.5" ry="8.5" transform="translate(208.3 186.9) rotate(-180)"/><rect class="cls-2" x="44.8" y="128.6" width="24.5" height="26.5" rx="8.5" ry="8.5" transform="translate(114.1 283.7) rotate(-180)"/><rect class="cls-2" x="44.8" y="34.6" width="24.5" height="85.5" rx="8.5" ry="8.5" transform="translate(114.1 154.7) rotate(-180)"/><rect class="cls-2" x="82.8" y="52.6" width="12.5" height="18.5" rx="6.25" ry="6.25" transform="translate(178.1 123.7) rotate(-180)"/><polygon class="cls-1" points="160.18 161.67 160.18 176.68 188.84 201.59 189.83 284.4 95.3 219.78 98.18 176.68 112.18 176.68 112.18 165.6 160.18 161.67"/><polygon class="cls-1" points="98.18 176.68 94.14 237.69 54.84 219.78 54.84 187.76 51.18 187.76 51.18 203.37 40.51 209 40.51 224 99.51 251.67 101.32 223.25 98.18 176.68"/></svg>