<svg id="Layer_1" data-name="Layer 1" xmlns="http://www.w3.org/2000/svg" viewBox="0 0 42.61 70.14"><defs><style>.cls-1{fill:#fff;}.cls-2{fill:#6ad874;}</style></defs><title>6</title><rect class="cls-1" x="3.65" width="38.96" height="38.96" rx="2.29" ry="2.29"/><rect class="cls-2" x="32.54" y="28.97" width="6.61" height="7.16" rx="2.29" ry="2.29"/><rect class="cls-2" x="32.54" y="3.59" width="6.62" height="23.08" rx="2.29" ry="2.29"/><rect class="cls-2" x="25.52" y="8.45" width="3.37" height="5" rx="1.69" ry="1.69"/><polygon class="cls-1" points="8.01 37.9 8.01 41.95 0 47.78 0 70.14 25.52 53.59 24.75 41.95 20.97 41.95 20.97 38.96 8.01 37.9"/><polygon class="cls-1" points="24.75 41.95 25.84 58.42 36.45 53.59 36.45 44.94 37.44 44.94 37.44 49.16 40.32 50.68 40.32 54.73 24.39 62.2 23.9 54.53 24.75 41.95"/></svg>