<svg id="Layer_1" data-name="Layer 1" xmlns="http://www.w3.org/2000/svg" viewBox="0 0 190 311"><defs><style>.cls-1{fill:#fff;}.cls-2{fill:#ab8eff;}</style></defs><title>Info_creatures</title><path class="cls-1" d="M95,167.34h69.32c2.68,0,4.35-3.37,3-6.07L132.67,91.43,98,21.59a3.26,3.26,0,0,0-6,0L57.33,91.43,22.67,161.27c-1.34,2.7.33,6.07,3,6.07H95Z"/><polygon class="cls-1" points="120.11 167.34 188.94 191.84 190 291.34 102.46 167.34 120.11 167.34"/><polygon class="cls-1" points="124.54 193.36 105.11 229.34 82.36 193.36 72.11 211.35 78.86 211.35 83.86 225.09 83.74 211.09 83.36 199.84 109.36 242.09 127.61 193.36 124.54 193.36"/><path class="cls-2" d="M95,88h29.4a1.65,1.65,0,0,0,1.28-2.46L111,57.15,96.28,28.81a1.41,1.41,0,0,0-2.56,0L79,57.15,64.32,85.49A1.65,1.65,0,0,0,65.6,88H95Z"/><rect class="cls-2" x="87.54" y="41.64" width="14.93" height="89.15" rx="7.22" ry="7.22" transform="translate(190 172.43) rotate(180)"/><line class="cls-2" x1="116.23" y1="149.31" x2="73.77" y2="149.31"/><rect class="cls-2" x="73.77" y="148.31" width="42.46" height="2"/><line class="cls-2" x1="112.03" y1="96.38" x2="112.03" y2="79.54"/><rect class="cls-2" x="111.03" y="79.53" width="2" height="16.84"/><line class="cls-2" x1="78.25" y1="96.38" x2="78.25" y2="79.54"/><rect class="cls-2" x="77.25" y="79.53" width="2" height="16.84"/></svg>