<svg id="Layer_1" data-name="Layer 1" xmlns="http://www.w3.org/2000/svg" viewBox="0 0 45.39 72.66"><defs><style>.cls-1{fill:#fff;}.cls-2{fill:#ab8eff;}</style></defs><title>9</title><path class="cls-1" d="M-654.19,616.9h-18.72a1.1,1.1,0,0,1-.81-1.64l9.36-18.86,9.36-18.86a0.88,0.88,0,0,1,1.63,0L-644,596.4l9.36,18.86a1.1,1.1,0,0,1-.81,1.64h-18.72Z" transform="translate(679.93 -577)"/><polygon class="cls-1" points="18.95 39.9 0 45.79 0 72.66 23.72 39.9 18.95 39.9"/><polygon class="cls-1" points="17.76 46.93 23 56.64 29.15 46.93 31.91 51.78 30.09 51.78 28.74 55.49 28.78 51.71 28.88 48.67 21.86 60.08 16.93 46.93 17.76 46.93"/><path class="cls-2" d="M-654.19,595.47h-7.94a0.45,0.45,0,0,1-.35-0.67l4-7.65,4-7.65a0.38,0.38,0,0,1,.69,0l4,7.65,4,7.65a0.45,0.45,0,0,1-.35.67h-7.94Z" transform="translate(679.93 -577)"/><rect class="cls-2" x="23.72" y="5.96" width="4.03" height="24.07" rx="1.95" ry="1.95"/><line class="cls-2" x1="20" y1="35.03" x2="31.47" y2="35.03"/><rect class="cls-2" x="20" y="34.76" width="11.47" height="0.54"/><line class="cls-2" x1="21.14" y1="20.74" x2="21.14" y2="16.19"/><rect class="cls-2" x="20.87" y="16.19" width="0.54" height="4.55"/><line class="cls-2" x1="30.26" y1="20.74" x2="30.26" y2="16.19"/><rect class="cls-2" x="29.99" y="16.19" width="0.54" height="4.55"/></svg>