<svg id="Layer_1" data-name="Layer 1" xmlns="http://www.w3.org/2000/svg" viewBox="0 0 39.31 39.9"><defs><style>.cls-1{fill:#ab8eff;}.cls-2,.cls-3{fill:#fff;}.cls-3{stroke:#fff;stroke-miterlimit:10;stroke-width:0.54px;}</style></defs><title>8</title><path class="cls-1" d="M-654.19,560.38h-18.72a1.1,1.1,0,0,1-.81-1.64l9.36-18.86L-655,521a0.88,0.88,0,0,1,1.63,0l9.36,18.86,9.36,18.86a1.1,1.1,0,0,1-.81,1.64h-18.72Z" transform="translate(673.85 -520.48)"/><path class="cls-2" d="M-654.19,538.95h-7.94a0.45,0.45,0,0,1-.35-0.67l4-7.65,4-7.65a0.38,0.38,0,0,1,.69,0l4,7.65,4,7.65a0.45,0.45,0,0,1-.35.67h-7.94Z" transform="translate(673.85 -520.48)"/><rect class="cls-2" x="17.64" y="5.96" width="4.03" height="24.07" rx="1.95" ry="1.95"/><line class="cls-3" x1="13.92" y1="35.03" x2="25.39" y2="35.03"/><line class="cls-3" x1="15.06" y1="20.74" x2="15.06" y2="16.19"/><line class="cls-3" x1="24.18" y1="20.74" x2="24.18" y2="16.19"/></svg>