<svg id="Layer_1" data-name="Layer 1" xmlns="http://www.w3.org/2000/svg" viewBox="0 0 46.2 68.27"><defs><style>.cls-1{fill:#fff;}.cls-2{fill:#7ecad8;}.cls-3{fill:#e5b34d;}</style></defs><title>3</title><circle class="cls-1" cx="26.54" cy="19.66" r="19.66"/><path class="cls-2" d="M-801.39,597a18,18,0,0,1,18-18,18,18,0,0,1,18,18l-7.31-6.32L-782.94,597l-7.28-10.8-4.35,10.8-3.09-4.81Z" transform="translate(809.96 -577.29)"/><polygon class="cls-3" points="4.25 19.89 4.26 19.89 4.25 19.89 4.25 19.89"/><circle class="cls-2" cx="27.02" cy="26.02" r="3.13"/><circle class="cls-2" cx="37.55" cy="26.02" r="3.13"/><path class="cls-1" d="M-791.25,613.7s2.17,10.53-18.72,10.53c0.22,0.22,0,21.33,0,21.33s23.9-10,23.9-31C-786,614.61-791.25,613.7-791.25,613.7Z" transform="translate(809.96 -577.29)"/><path class="cls-1" d="M-790.55,626.08s6.34,16.61,15-.63c0.15,0.12,1.38,1,1.38,1s-4.76,14.7-11,8.92l-6.25-5.77Z" transform="translate(809.96 -577.29)"/><path class="cls-1" d="M-771.16,622.85a2.67,2.67,0,0,1-1,3.62c-0.35.24-1-.12-1.39,0-1,.22-1.8.42-2.34-0.4a2.67,2.67,0,0,1,1-3.62A2.67,2.67,0,0,1-771.16,622.85Z" transform="translate(809.96 -577.29)"/><path class="cls-1" d="M-774.89,622.41s4.4-2.48,3.5-4.62a0.92,0.92,0,0,1,.49-1.35c0.24-.16,2.48,1-1.58,5.74C-772.38,622-774.89,622.41-774.89,622.41Z" transform="translate(809.96 -577.29)"/></svg>