<svg id="Layer_1" data-name="Layer 1" xmlns="http://www.w3.org/2000/svg" viewBox="0 0 190 311"><defs><style>.cls-1{fill:#fff;}.cls-2{fill:#7ecad8;}.cls-3{fill:#e5b34d;}</style></defs><title>Info_creatures</title><circle class="cls-1" cx="91.81" cy="93.46" r="72.81"/><path class="cls-2" d="M158.36,93.46a66.55,66.55,0,0,0-133.09,0L52.34,70,90,93.46l27-40,16.1,40,11.44-17.82Z"/><polygon class="cls-3" points="174.36 94.32 174.35 94.32 174.36 94.32 174.36 94.32"/><circle class="cls-2" cx="90.03" cy="117.03" r="11.58"/><circle class="cls-2" cx="51.05" cy="117.03" r="11.58"/><path class="cls-1" d="M120.8,155.51s-9,40.33,68.33,40.33c-0.83.83,0.67,79,.67,79s-88.18-38.35-88.18-116C101.3,158.84,120.8,155.51,120.8,155.51Z"/><path class="cls-1" d="M118.21,201.33S94.72,262.87,62.67,199c-0.55.45-5.11,3.53-5.11,3.53s17.62,54.43,40.77,33l23.15-21.38Z"/><path class="cls-1" d="M46.39,189.39c-2.78,4.15-1.1,10.15,3.75,13.41,1.31,0.88,3.73-.45,5.15-0.14,3.81,0.83,6.65,1.54,8.68-1.49,2.78-4.15,1.1-10.15-3.75-13.41S49.17,185.24,46.39,189.39Z"/><path class="cls-1" d="M60.22,187.76s-16.29-9.17-13-17.11c1.85-2.84-1-4.41-1.83-5s-9.2,3.86,5.87,21.25C50.93,186.13,60.22,187.76,60.22,187.76Z"/></svg>