<?xml version="1.0" encoding="utf-8"?>
<!-- Generator: Adobe Illustrator 16.0.0, SVG Export Plug-In . SVG Version: 6.00 Build 0)  -->
<!DOCTYPE svg PUBLIC "-//W3C//DTD SVG 1.1//EN" "http://www.w3.org/Graphics/SVG/1.1/DTD/svg11.dtd">
<svg version="1.1" id="Layer_1" xmlns="http://www.w3.org/2000/svg" xmlns:xlink="http://www.w3.org/1999/xlink" x="0px" y="0px"
	 width="1167.799px" height="361.156px" viewBox="1384.115 58.731 1167.799 361.156"
	 enable-background="new 1384.115 58.731 1167.799 361.156" xml:space="preserve">
<g id="Layer_2_1_">
	<g id="final_x5F_ver_x5F_2_1_">
		<path fill="#F19500" stroke="#F19500" stroke-width="6" stroke-miterlimit="10" d="M1569.462,82.273
			c-1.596-3.29-31.479-23.816-77.046-20.092c-45.563,3.726-66.272,34.742-70.813,66.318c-9.582,74.927,78.901,101.76,81.601,134.775
			c1.636,19.971-9.78,33.19-46.678,36.209c-36.893,3.017-58.247-33.566-62.879-31.303s-7.938,43.798-5.934,47.819
			c2.003,4.022,25.399,30.602,77.274,26.358c51.874-4.24,80.679-37.997,80.718-75.019c0.084-84.353-73.404-78.065-79.436-124.487
			c-3.264-25.117,12.805-38.042,39.992-40.267c21.915-1.794,54.552,26.812,58.938,24.081
			C1569.584,123.943,1571.056,85.564,1569.462,82.273z"/>
		<g>
			<path stroke="#000000" stroke-miterlimit="10" d="M1590.426,171.977c7.793-6.681,30.81-5.725,34.983-0.715
				c4.178,5.011-2.923,35.911-2.923,35.911s23.38-44.263,70.559-44.263c47.178,0,61.165,182.958-88.719,182.958
				c0,0-3.688,64.471-10.646,69.209c-6.956,4.737-29.782,6.673-36.74,0C1549.982,408.406,1582.634,178.656,1590.426,171.977z"/>
			<path fill="#FFFFFF" stroke="#000000" stroke-miterlimit="10" d="M1613.442,312.373c8.369,7.93,49.841-6.933,67.634-30.059
				c13.979-18.176,20.875-77.028,5.013-84.335c-10.617-4.89-40.743,21.322-58.729,46.204
				C1618.467,256.488,1605.51,304.859,1613.442,312.373z"/>
		</g>
		<g>
			<path stroke="#000000" stroke-miterlimit="10" d="M2142.889,100.167c7.792-6.681,30.812-5.725,34.983-0.714
				c4.176,5.01-2.923,35.911-2.923,35.911s23.382-44.263,70.558-44.263c47.179,0,61.164,182.96-88.716,182.96
				c0,0-3.689,64.469-10.646,69.207c-6.957,4.739-29.783,6.672-36.74,0c-2.763-2.649-0.644-29.476,5.05-74.553
				c0.342-2.697-12.57,2.586-26.351-14.321c-13.58-16.664-2.623-27.637-1.244-29.692c3.257-4.852,9.624-4.671,16.112,4.303
				c10.999,15.215,15.822,4.81,16.199,2.103C2127.519,170.894,2138.92,103.571,2142.889,100.167z"/>
			<path fill="#FFFFFF" stroke="#000000" stroke-miterlimit="10" d="M2164.237,237.225c8.369,7.929,49.843-6.932,67.636-30.06
				c13.977-18.174,20.873-77.028,5.011-84.334c-10.617-4.89-40.745,21.323-58.729,46.204
				C2169.26,181.338,2156.305,229.709,2164.237,237.225z"/>
		</g>
		<g>
			<path stroke="#000000" stroke-miterlimit="10" d="M1774.769,273.688c0,0-0.936,36.148,23.1,35.624
				c25.504-0.556,54.556-32.843,62.625-31.729c8.072,1.113-0.832,41.194-6.397,48.15c-5.568,6.959-117.456,70.694-117.456-48.15
				c0-118.848,63.993-139.79,103.816-128.589C1867.176,156.509,1899.367,264.674,1774.769,273.688z"/>
			<path fill="#FFFFFF" stroke="#000000" stroke-miterlimit="10" d="M1771.779,247.44c2.99,3.704,26.81-5.188,34.881-9.835
				c8.19-4.646,14.568-10.826,19.14-18.581c4.694-7.754,7.174-15.197,7.174-22.335c0-4.53-1.565-8.747-4.037-12.641
				c-3.124-3.93-6.356-5.877-10.606-5.877c-6.097,0-11.666,2.498-17.735,7.479c-4.563,3.969-8.815,9.153-13.071,15.61
				c-3.221,5.088-6,10.692-8.506,16.737C1776.861,224.046,1768.791,243.736,1771.779,247.44z"/>
		</g>
		<path stroke="#000000" stroke-width="5" stroke-miterlimit="10" d="M2020.362,338.221c-4.763-8.132,19.644-170.566,27.046-178.042
			c7.4-7.474,18.327-5.427,24.572,0s-22.205,173.812-26.77,178.042C2040.65,342.45,2025.123,346.353,2020.362,338.221z"/>
		<circle stroke="#000000" stroke-width="2" stroke-miterlimit="10" cx="2066.141" cy="115.83" r="19.526"/>
		<path stroke="#000000" stroke-width="3" stroke-miterlimit="10" d="M1929.035,213.245c-16,20.5-25.67,92.26,7.5,90.072
			c45.5-3,55.178-25.461,63.248-24.348c8.071,1.114-0.834,36.467-6.397,43.424c-5.567,6.958-112.447,70.415-112.447-48.431
			s59.333-130.813,99.155-119.611c8.246,2.316,14.883,5.045,22.336,11.688c10.666,9.505-0.297,38.55-4.473,39.94
			C1993.781,207.374,1950.035,178.17,1929.035,213.245z"/>
		<path stroke="#000000" stroke-width="8" stroke-miterlimit="10" d="M2282.166,336.473c-5.908-2.577,22.976-237.583,32.986-240.662
			c4.106-1.263,18.795-1.967,20.688-0.982c6.514,3.386-22.096,132.638-22.096,132.638c10.074-22.672,42.323-73.521,81.985-68.093
			c37.78,5.17-4.493,174.167-5.428,176.184c-3.868,8.344-18.409,6.46-25.324,3.049c-6.911-3.411,21.612-95.798,24.489-137.481
			c0-25.212-34.636-4.492-50.416,14.702c-5.104,6.208-11.696,18.473-19.619,43.836c-9.451,30.27-9.313,75.305-11.795,77.763
			C2303.078,341.945,2288.07,339.049,2282.166,336.473z"/>
		<path stroke="#000000" stroke-width="5" stroke-miterlimit="10" d="M2428.918,338.306c-4.871-8.141,20.096-170.729,27.668-178.21
			c7.573-7.479,18.752-5.433,25.142,0c6.39,5.431-22.718,173.976-27.384,178.21C2449.674,342.541,2433.787,346.447,2428.918,338.306
			z"/>
		<path d="M2449.043,114.738c0,13.301,10.175,24.057,23.345,24.057c12.942,0,23.313-10.756,23.313-24.057
			c0-13.29-10.371-24.052-23.313-24.052C2459.218,90.686,2449.043,101.448,2449.043,114.738z"/>
		<path fill="#FFFFFF" d="M2454.603,115.031c0,10.296,8.033,18.635,17.691,18.635c9.653,0,17.68-8.339,17.68-18.635
			c0-10.267-8.025-18.604-17.68-18.604C2462.637,96.426,2454.603,104.764,2454.603,115.031z"/>
		<path d="M2458.115,115.039c0,8.039,6.325,14.574,13.913,14.574c7.601,0,14.185-6.535,14.185-14.574
			c0-8.033-6.584-14.555-14.185-14.555C2464.44,100.486,2458.115,107.006,2458.115,115.039z"/>
		<path fill="#FFFFFF" d="M2463.353,115.495c0,4.854,3.835,8.781,8.371,8.781c4.533,0,8.398-3.93,8.398-8.781
			c0-4.856-3.865-8.798-8.398-8.798C2467.188,106.698,2463.353,110.639,2463.353,115.495z"/>
		<path fill="#FF0000" d="M2466.883,115.704c0,2.848,2.167,5.154,4.844,5.154c2.656,0,4.822-2.309,4.822-5.154
			c0-2.847-2.166-5.141-4.822-5.141C2469.05,110.565,2466.883,112.859,2466.883,115.704z"/>
		<g>
			<path stroke="#000000" stroke-width="4" stroke-miterlimit="10" d="M2538.437,84.562c0,0-77.225-36.673-125.955,25.528
				c0,0.295,8.836,33.456,32.188,31.697c0.064-0.294-15.701-8.512-18.304-19.084C2426.367,122.406,2452.364,70.765,2538.437,84.562z
				"/>
			<path fill="#FFFFFF" d="M2507.237,85.89c0,0-39.048-4.25-67.261,23.323c0.461,0.389,0.011,5.87-2.059,3.087
				C2451.564,126.386,2443.102,104.755,2507.237,85.89z"/>
		</g>
	</g>
</g>
</svg>
