<svg id="Layer_1" data-name="Layer 1" xmlns="http://www.w3.org/2000/svg" viewBox="0 0 290.5 120.44"><defs><style>.cls-1{fill:#3c4144;}.cls-2{fill:#f19500;}.cls-3{fill:none;}.cls-4{fill:#fff;}</style></defs><title>Logo</title><path class="cls-1" d="M286.25,53.33c0,14.86-11.17,25.4-26.92,25.4S232,67.29,232,52.18c0-14.09,12.06-25.52,26.66-25.52C274.32,26.66,286.25,38.22,286.25,53.33ZM252,52.44a7.22,7.22,0,0,0,7.24,7.49c4.32,0,7.24-2.92,7.24-7.37a7.32,7.32,0,0,0-7.36-7.49A7.24,7.24,0,0,0,252,52.44Z"/><path class="cls-2" d="M50.48,13.52C44.13,10.34,37.4,9.07,27.12,9.07H3.75V93.77H25.47c8.89,0,15-.89,20.44-2.79,16.51-6.09,27-21.59,27-40C73,34.72,64.45,20.5,50.48,13.52ZM49.74,60.69a8.89,8.89,0,1,1,8.89-8.89A8.89,8.89,0,0,1,49.74,60.69Z"/><path class="cls-1" d="M134.21,28.19L134,30.72a17.86,17.86,0,0,0-12.06-4.32c-13.46,0-23.11,10.67-23.11,25.65,0,14.6,9.9,25.52,23,25.52A20,20,0,0,0,133.58,74l0.13,2.29h18.79V28.19H134.21Zm-9.64,32.51a8.89,8.89,0,1,1,8.89-8.89A8.89,8.89,0,0,1,124.57,60.69Z"/><path class="cls-3" d="M213.75,44.76a7.43,7.43,0,0,0,.13,14.86c4.32,0,7.24-2.92,7.24-7.37A7.32,7.32,0,0,0,213.75,44.76Z"/><path class="cls-1" d="M213.37,26.34a27.27,27.27,0,0,0-16.89,5.81,13.15,13.15,0,0,0-10-4.8c-5,0-8.25,2.41-13.21,9.78V28.5H154.84V76.63H173.5V59.74a31.89,31.89,0,0,1,.42-5.32c0-.23,0-0.47,0-0.71a8.89,8.89,0,1,1,14.28,7.05C191.76,71.24,201.64,78.4,214,78.4c15.75,0,26.92-10.54,26.92-25.4C240.93,37.9,229,26.34,213.37,26.34Zm0.51,33.27a7.43,7.43,0,0,1-.13-14.86,7.32,7.32,0,0,1,7.36,7.49C221.12,56.69,218.2,59.61,213.88,59.61Z"/><path class="cls-4" d="M188.79,47.18a8.9,8.9,0,0,0-1.39-1"/><path class="cls-1" d="M95.23,52.72a8.83,8.83,0,0,1-17.52.41l-0.3,30.66c0.36,10-1.6,13.61-8.81,13.67l0.12,17.44c17.65-.37,27.29-10.63,27-28.44Z"/><path class="cls-4" d="M77.6,51.81a8.86,8.86,0,0,0,.11,1.32l0-2.83A8.86,8.86,0,0,0,77.6,51.81Z"/><path class="cls-4" d="M95.28,51.81a8.87,8.87,0,0,0-.08-1.13l0,2A8.93,8.93,0,0,0,95.28,51.81Z"/></svg>