<svg id="Stage_purple" xmlns="http://www.w3.org/2000/svg" viewBox="0 0 76 101.5"><defs><style>.cls-1{opacity:0.5;}.cls-2{fill:#e6592a;}.cls-3{fill:#898897;}.cls-4{fill:none;stroke:#fff;stroke-miterlimit:10;stroke-dasharray:7.15 3.06;}</style></defs><title>Djaroo_icons_135px</title><g class="cls-1"><path class="cls-2" d="M34.24,64.61H33.33c-4,0-15.33-.86-23.33-9.2V111H45V89.69a4.59,4.59,0,0,1-1.53-1C35,83.68,34.26,65.79,34.24,64.61Z"/><path class="cls-2" d="M66.19,63.29h0l0-.07s5.74-2.49,8.45-5.53,0.44-10.27.44-10.27l-0.17-.54s-2.36-7.07-6.32-7.95a1.22,1.22,0,0,0-.16.1h0a30.32,30.32,0,0,0,.84-7.17c0-17.67-15.4-32.07-34.4-32.07S0.16,14.1.16,31.78C0.16,40.65,4,48.35,10,54.44v0.1a34.13,34.13,0,0,0,23,9.23v0h2.06c0,1.18.66,19.08,9.13,24.06,0.61,0.36,1.37.7,2,1,9,4.33,22.55,5.63,22.55,5.63l0.16,0.21L66.7,78.78l1.72-3.54L66.4,73l0.75-2.15-1-7.52v0"/></g><circle class="cls-3" cx="35.25" cy="31.5" r="12.5"/><circle class="cls-4" cx="35.25" cy="31.5" r="26.01"/></svg>