<svg id="Camera" xmlns="http://www.w3.org/2000/svg" viewBox="0 0 117 117"><defs><style>.cls-1{fill:#fff;}.cls-2,.cls-6{fill:#e5b34d;}.cls-3,.cls-5{fill:#cc993e;}.cls-4{fill:none;stroke:#fff;}.cls-4,.cls-5,.cls-6{stroke-miterlimit:10;}.cls-5{stroke:#e5b34d;}.cls-6{stroke:#fcfcfc;}</style></defs><title>Djaroo_icons_117px</title><rect class="cls-1" width="117" height="117"/><path class="cls-2" d="M17.38,46.63S16.6,69,17,86.88a1.92,1.92,0,0,0,2.08,1.73c0.87,0,13.82.56,22.19,0,0-.09,0-42,0-42L40.82,46Z"/><path class="cls-3" d="M99.6,42.73H87.1L79.17,29.58h0l-2.51,0,0,0V29.12a0.56,0.56,0,0,0-.54-0.54h0l-0.18-1a0.57,0.57,0,0,0-.56-0.47L63.5,27a0.66,0.66,0,0,0-.65.51l-0.21.92h0l-0.27.09a0.44,0.44,0,0,0-.3.43v0.47l0,0-2.51,0h0L51.74,42.72H41.27l0,0V88.56l0,0h58.9l0,0V43.32A0.59,0.59,0,0,0,99.6,42.73Z"/><path class="cls-3" d="M41.46,42.76l0,0H18.32s-0.37-.13-0.44.56-0.17,3-.18,3.17h0l23.74,0,0,0v-3.7Z"/><path class="cls-3" d="M40.54,46.32a0,0,0,0,1,0,0c0,0.23-.47,2.86-5.15,3.15-0.87,0-10.4,0-14.6-.87h0c-1.95-.65-3.25-1.17-3.42-2,0-.09.32-0.14,0.32-0.14Z"/><circle class="cls-2" cx="68.47" cy="62.83" r="22.71"/><circle class="cls-3" cx="68.47" cy="62.83" r="17.42"/><circle class="cls-4" cx="68.47" cy="62.83" r="13.25"/><circle class="cls-5" cx="68.47" cy="62.83" r="10.34"/><path class="cls-3" d="M39.87,39.17a1.93,1.93,0,0,1,.69-0.56c0.22,0,7.19-.52,10.36,0a2.29,2.29,0,0,1,1,.61,11.65,11.65,0,0,1,0,2.73,79,79,0,0,0-12,0C40,41.86,39.74,39.61,39.87,39.17Z"/><path class="cls-3" d="M41.12,41a1.68,1.68,0,0,1,.55-0.56c0.17,0,5.7-.52,8.21,0a1.81,1.81,0,0,1,.79.61,14.67,14.67,0,0,1,0,2.73,49.75,49.75,0,0,0-9.48,0C41.22,43.68,41,41.43,41.12,41Z"/><path class="cls-3" d="M30.14,41.25a1.57,1.57,0,0,1,.41-0.56c0.13,0,4.22-.52,6.07,0a1.48,1.48,0,0,1,.58.61,19.83,19.83,0,0,1,0,2.73,27.23,27.23,0,0,0-7,0C30.22,43.94,30.07,41.69,30.14,41.25Z"/><path class="cls-3" d="M29,41.95l0.36-1.65,1.24-.22,0.21-.35,1.56-.22s2.92,0.09,3.18.13a0.31,0.31,0,0,1,.23.35,3.27,3.27,0,0,1,1.74.48,1.73,1.73,0,0,1-.19,1.65c-0.17.09-8.33,0-8.33,0V41.95Z"/><path class="cls-6" d="M74,55.66a6.91,6.91,0,0,1,.66,5.18c-0.91,4.55-2.9,6.07-4.51,6.89s-0.95,1.21-1,1.82-0.58,2.25-6.58,1h0a13.3,13.3,0,0,0,5.37,1.36,9.3,9.3,0,0,0,9.34-9A8.77,8.77,0,0,0,74,55.66Z"/><path class="cls-2" d="M55.6,37.14l4.22-7.19,2.73,0,0-.52V29l0.23,0,0.28-.09,0.06-.3,0.2-.9a0.16,0.16,0,0,1,.15-0.12l11.83,0.06,0.25,1.09,0.07,0.42h0.44l0.06,0.48,0,0.48,0.5,0h2.24l4.28,7.09Z"/><path class="cls-3" d="M63.83,27.74h0M63.77,28L75,28.07l0.12,0.67,0.33,0.82H76l-0.14,1h2.78l3.65,6.09-25.81,0,3.63-6.19h2.38l0.29-.3,0.3-.31V29.36l0.42-.15,0.12-.55L63.77,28m-0.27-1a0.66,0.66,0,0,0-.64.52l-0.21.92h0l-0.27.09a0.44,0.44,0,0,0-.3.43v0.47l0,0h0l-2.51,0h0l-4.81,8.18,29.32,0-4.87-8.08h0l-2.51,0,0,0V29.12a0.56,0.56,0,0,0-.54-0.54h0l-0.18-1a0.58,0.58,0,0,0-.56-0.48L63.5,27h0Z"/><path class="cls-1" d="M40.65,46.61A4.26,4.26,0,0,1,39.83,48a4.13,4.13,0,0,1-1.34,1,9.33,9.33,0,0,1-3.14.71c-2.11.06-4.21,0-6.31,0s-4.2-.15-6.31-0.36c-0.53-.05-1.05-0.12-1.58-0.2a5.16,5.16,0,0,1-.83-0.17l-0.76-.25A12.3,12.3,0,0,1,18,48.06a3.94,3.94,0,0,1-.75-0.49,1.72,1.72,0,0,1-.59-0.91l0,0.12a0.53,0.53,0,0,1,0-.38,0.52,0.52,0,0,1,.14-0.24A0.64,0.64,0,0,1,17,46L17.19,46l0.25-.05,0.13,1-0.12,0s0,0,0,0a0.35,0.35,0,0,0,.09-0.07,0.44,0.44,0,0,0,.12-0.2,0.46,0.46,0,0,0,0-.34l0,0.12a1.51,1.51,0,0,0,.82.76,11.45,11.45,0,0,0,1.38.6l0.73,0.26a4.51,4.51,0,0,0,.7.16c0.5,0.09,1,.17,1.53.24,2.06,0.27,4.15.41,6.24,0.52s4.19,0.18,6.27.18a8.9,8.9,0,0,0,3-.59,3.72,3.72,0,0,0,1.23-.82,3.88,3.88,0,0,0,.77-1.28Z"/><path class="cls-1" d="M64.12,58.28a7.29,7.29,0,0,1,1.3-.87s-1.06-2.89-1.06-2.89A7.17,7.17,0,0,0,62,56.17S64.12,58.28,64.12,58.28Z"/><path class="cls-1" d="M62,59.22a4.58,4.58,0,0,1,.6-0.77s-1.2-1.52-1.2-1.52a4.5,4.5,0,0,0-1.11,1.46S62,59.22,62,59.22Z"/><path class="cls-3" d="M18.65,54.6a3.62,3.62,0,0,0,.88.3,5.59,5.59,0,0,0,2.12,0c0.21,0,.42-0.08.64-0.14l0.83-.15c0.6-.08,1.21-0.15,1.83-0.2a31.47,31.47,0,0,1,3.88,0A30.2,30.2,0,0,1,36,55.66c0.48,0.15.92,0.3,1.3,0.44a2.89,2.89,0,0,0,.91.26l1,0.12a4,4,0,0,1-.77.65,3.08,3.08,0,0,1-1.14.51c-0.42.12-.88,0.22-1.38,0.32a29.63,29.63,0,0,1-7.25.41,36.66,36.66,0,0,1-3.81-.44c-0.61-.1-1.19-0.22-1.71-0.34-0.27-.07-0.55-0.11-0.81-0.18a6.82,6.82,0,0,1-.89-0.24,4.53,4.53,0,0,1-2.29-1.64A2.18,2.18,0,0,1,18.65,54.6Z"/><path class="cls-3" d="M18.65,62.4a3.62,3.62,0,0,0,.88.3,5.59,5.59,0,0,0,2.12,0c0.21,0,.42-0.08.64-0.14l0.83-.15c0.6-.08,1.21-0.15,1.83-0.2a31.49,31.49,0,0,1,3.88,0A30.2,30.2,0,0,1,36,63.46c0.48,0.15.92,0.3,1.3,0.44a2.9,2.9,0,0,0,.91.26l1,0.12a4,4,0,0,1-.77.65,3.08,3.08,0,0,1-1.14.51c-0.42.12-.88,0.22-1.38,0.32a29.63,29.63,0,0,1-7.25.41,36.66,36.66,0,0,1-3.81-.44c-0.61-.1-1.19-0.22-1.71-0.34-0.27-.07-0.55-0.11-0.81-0.18A6.82,6.82,0,0,1,21.36,65a4.53,4.53,0,0,1-2.29-1.64A2.18,2.18,0,0,1,18.65,62.4Z"/><path class="cls-3" d="M18.65,70.2a3.62,3.62,0,0,0,.88.3,5.59,5.59,0,0,0,2.12,0c0.21,0,.42-0.08.64-0.14l0.83-.15c0.6-.08,1.21-0.15,1.83-0.2a31.49,31.49,0,0,1,3.88,0A30.2,30.2,0,0,1,36,71.26c0.48,0.15.92,0.3,1.3,0.44a2.9,2.9,0,0,0,.91.26l1,0.12a4,4,0,0,1-.77.65,3.08,3.08,0,0,1-1.14.51c-0.42.12-.88,0.22-1.38,0.32a29.63,29.63,0,0,1-7.25.41,36.66,36.66,0,0,1-3.81-.44c-0.61-.1-1.19-0.22-1.71-0.34-0.27-.07-0.55-0.11-0.81-0.18a6.81,6.81,0,0,1-.89-0.24,4.53,4.53,0,0,1-2.29-1.64A2.18,2.18,0,0,1,18.65,70.2Z"/><path class="cls-3" d="M18.65,78a3.62,3.62,0,0,0,.88.3,5.59,5.59,0,0,0,2.12,0c0.21,0,.42-0.08.64-0.14L23.12,78c0.6-.08,1.21-0.15,1.83-0.2a31.47,31.47,0,0,1,3.88,0A30.2,30.2,0,0,1,36,79.06c0.48,0.15.92,0.3,1.3,0.44a2.89,2.89,0,0,0,.91.26l1,0.12a4,4,0,0,1-.77.65,3.08,3.08,0,0,1-1.14.51c-0.42.12-.88,0.22-1.38,0.32a29.63,29.63,0,0,1-7.25.41,36.64,36.64,0,0,1-3.81-.44c-0.61-.1-1.19-0.22-1.71-0.34-0.27-.07-0.55-0.11-0.81-0.18a6.82,6.82,0,0,1-.89-0.24,4.53,4.53,0,0,1-2.29-1.64A2.18,2.18,0,0,1,18.65,78Z"/></svg>