<svg id="Hard_drive" xmlns="http://www.w3.org/2000/svg" viewBox="0 0 117 117"><defs><style>.cls-1{fill:#fff;}.cls-2{fill:none;stroke:#cc993e;stroke-width:3px;}.cls-2,.cls-3,.cls-4{stroke-miterlimit:10;}.cls-3{fill:#e5b34d;}.cls-3,.cls-4{stroke:#fff;}.cls-4,.cls-5{fill:#cc993e;}</style></defs><title>Djaroo_icons_117px</title><rect class="cls-1" width="117" height="117"/><path class="cls-2" d="M71.49,34.75s12.4-8.5,24.38-6.64c8.47,1.34,12.08,3.66,14.24,9.61,2,5.63.7,11.11-4,17.9C97.53,67.89,94.49,70.81,88.59,78"/><path class="cls-3" d="M79.07,85.08L77.5,86.21V87.9l4.39,1.26a2.11,2.11,0,0,0,1.41-.61c0.56-.61,1.36-1.43,1.36-1.43s0.64,0.48,1.68-.87,3.81-4.68,3.07-7.84a1.68,1.68,0,0,0-2.24-.48s-3.57.39-7.65,5.81A1.15,1.15,0,0,0,79.07,85.08Z"/><path class="cls-4" d="M55.31,73.34S9.88,61.45,8.06,60.93s-1.92-1.31-1.94-1.42a0.77,0.77,0,0,0,.06.38s0.39,4.22.59,5.78a4,4,0,0,0,2,2.53s47,12.87,47.19,12.87a8.44,8.44,0,0,0,6.18-1.56L91.26,48.71s0.52-5.4.52-5.53S63.5,70.74,60.84,72.82C59,74.12,55.31,73.34,55.31,73.34Z"/><path class="cls-3" d="M91,41.56s-40.56-8.84-40.5-8.91c-1.82-.58-4.87.72-4.87,0.72l-37.76,24c-1.43.91-1.73,1.67-1.75,2.09,0,0.1.24,0.93,1.94,1.42S55.31,73.34,55.31,73.34s3.64,0.78,5.53-.52c2.66-2.08,30.94-29.64,30.94-29.64C92.1,41.62,91,41.56,91,41.56Z"/><path class="cls-4" d="M51,32.78a53.92,53.92,0,0,1,12.48,0c-0.07,0,18.27,3.77,18.27,3.77s6.76,1.17,9.23,5L51,32.78"/><path class="cls-4" d="M77.5,86.38l4.8,1.41a0.66,0.66,0,0,1-.39,1.06c-0.91.28-4.41-1.19-4.41-1.19V86.38Z"/><polygon class="cls-5" points="46.94 68.09 21.79 61.82 25.96 58.87 50.82 64.5 46.94 68.09"/></svg>