<svg id="Headphones" xmlns="http://www.w3.org/2000/svg" viewBox="0 0 117 117"><defs><style>.cls-1{fill:#fff;}.cls-2,.cls-4{fill:#cc993e;}.cls-3{fill:#e5b34d;}.cls-4{stroke:#fff;stroke-miterlimit:10;}</style></defs><title>Djaroo_icons_117px</title><rect class="cls-1" width="117" height="117"/><path class="cls-2" d="M58.5,20.06s-24.9-.52-32.83,24.25A54.07,54.07,0,0,0,26,70.83a21.83,21.83,0,0,0,2.41,7.67S28,78.4,27.82,79c0,0.1,4.48,9,4.48,9s-0.1.33,0.65-.2c0,0,3.58,7.64,7.93,8.84a2.48,2.48,0,0,0,2.08.13C43,96.79,29.38,73.43,27,64.15c-0.43-1.47-2.51-9.23-.22-20,0.3-1,5.16-22,31.72-23.27C58.54,20.86,58.5,20.06,58.5,20.06Z"/><path class="cls-3" d="M58.44,21.85l0.11,7.81a5.21,5.21,0,0,1-1.21-.09c-1-.13-0.74,1.13-5.63,1-0.52,0,.3.52-2.47,0.87-1,.17-2.51,1.34-4.51,1.78-1,.22-0.56,1.26-3.77,2.3a24.26,24.26,0,0,1-4.07,2.86c-0.56.3-1.73,2.43-4.72,2.43a3.89,3.89,0,0,1-.3,1c-0.39.74-5.59,10.7-1.65,19.59a3.37,3.37,0,0,1,1.19,1.74,2.88,2.88,0,0,1,1.89-.49S47.71,92.8,48.84,93.06c0,0-.35.74-4.81,3.25A219.79,219.79,0,0,1,27.6,62.51S21.71,39.93,38.87,28.23A35.67,35.67,0,0,1,58.44,21.85Z"/><path class="cls-4" d="M42.32,61.76a146.63,146.63,0,0,1,9.85,17.91s3.74,5.23,3.35,8.65a5.68,5.68,0,0,1-3.74,4.42,7,7,0,0,1-2.94.33c-1.29-1.66-9.9-17.47-15.56-30.46,0,0,3.25-5,6.46-3.51A6,6,0,0,1,42.32,61.76Z"/><path class="cls-1" d="M37.51,59.91a1.92,1.92,0,0,0,.36.88c0.09,0.13-1.35,1.92-1.09,2.61,0.15,0.41,2-.42,2.14.11,0.26,0.8-1.15,2.53-.91,3.43s2.2,1,2.26,1.82c0.09,1-2,3.57,1.25,3.16,0.64-.08,0,1.71.36,2.21A5,5,0,0,0,44.36,76a3.21,3.21,0,0,1-2.09-2C42,73.14,42,71,40.43,71.13,39.17,71.27,41,69.4,41,68.62s-1.72-1-2.08-2.1c-0.27-.8.78-2.38,0.46-3.15-0.21-.51-1.74,0-1.94-0.47s0.81-2,.63-2.34A5.68,5.68,0,0,1,37.51,59.91Z"/><path class="cls-2" d="M58.31,20.06s24.9-.52,32.82,24.25a54.07,54.07,0,0,1-.32,26.52,21.83,21.83,0,0,1-2.41,7.67s0.36-.1.58,0.49c0,0.1-4.49,9-4.49,9s0.1,0.33-.65-0.2c0,0-3.58,7.64-7.93,8.84a2.48,2.48,0,0,1-2.08.13c-0.06,0,13.59-23.33,15.93-32.61,0.43-1.47,2.51-9.23.22-20-0.3-1-5.16-22-31.72-23.27C58.27,20.86,58.31,20.06,58.31,20.06Z"/><path class="cls-3" d="M58.38,21.85l-0.11,7.81a5.21,5.21,0,0,0,1.21-.09c1-.13.74,1.13,5.63,1,0.52,0-.3.52,2.47,0.87,1,0.17,2.51,1.34,4.51,1.78,1,0.22.56,1.26,3.77,2.3a24.26,24.26,0,0,0,4.07,2.86c0.56,0.3,1.73,2.43,4.72,2.43a3.89,3.89,0,0,0,.3,1c0.39,0.74,5.59,10.7,1.65,19.59a3.37,3.37,0,0,0-1.19,1.74,2.88,2.88,0,0,0-1.88-.49S69.1,92.8,68,93.06c0,0,.35.74,4.81,3.25a219.79,219.79,0,0,0,16.42-33.8S95.1,39.93,77.94,28.23A35.67,35.67,0,0,0,58.38,21.85Z"/><path class="cls-4" d="M74.5,61.76a146.63,146.63,0,0,0-9.85,17.91s-3.74,5.23-3.35,8.65A5.68,5.68,0,0,0,65,92.73a7,7,0,0,0,2.94.33c1.29-1.66,9.9-17.47,15.56-30.46,0,0-3.25-5-6.46-3.51A6,6,0,0,0,74.5,61.76Z"/><path class="cls-1" d="M79.31,59.91a1.92,1.92,0,0,1-.36.88c-0.09.13,1.35,1.92,1.09,2.61-0.15.41-2-.42-2.14,0.11-0.26.8,1.15,2.53,0.91,3.43s-2.2,1-2.26,1.82c-0.09,1,2,3.57-1.25,3.16-0.64-.08,0,1.71-0.36,2.21A5,5,0,0,1,72.45,76a3.21,3.21,0,0,0,2.09-2c0.3-.87.26-3.05,1.84-2.88,1.26,0.14-.59-1.73-0.52-2.51s1.72-1,2.08-2.1c0.27-.8-0.78-2.38-0.46-3.15,0.21-.51,1.74,0,1.94-0.47s-0.81-2-.63-2.34A5.68,5.68,0,0,0,79.31,59.91Z"/><path class="cls-1" d="M47.44,27.44a3.38,3.38,0,0,1,1.27,0c0.2,0,2.21-2,3.2-2,0.59,0,0,2.05.72,2,1.14,0,3.07-2.05,4.34-2.16s1.95,1.73,3,1.5c1.38-.3,4.24-3.28,4.57,0,0.06,0.65,2.3-.62,3.06-0.48A5.27,5.27,0,0,1,70.8,28a3.74,3.74,0,0,0-3.18-1.28c-1.24,0-4.16.9-4.36-.69-0.15-1.26-2.16,1.22-3.23,1.44s-1.85-1.26-3.38-1.21c-1.14,0-3,1.65-4.09,1.63-0.74,0-.52-1.66-1.15-1.69-0.83,0-2.46,1.53-3,1.48A8,8,0,0,0,47.44,27.44Z"/></svg>