<svg id="Laptop" xmlns="http://www.w3.org/2000/svg" viewBox="0 0 117 117"><defs><style>.cls-1{fill:#fff;}.cls-2{fill:#cc993e;}.cls-3{fill:#fffefd;}.cls-4{fill:#e5b34d;}.cls-5{fill:none;stroke:#cc993e;stroke-miterlimit:10;}</style></defs><title>Djaroo_icons_117px</title><rect class="cls-1" width="117" height="117"/><path class="cls-2" d="M95.38,67.05l-71.13-.39a0.75,0.75,0,0,1-.75-0.72L21.7,24.51a2.71,2.71,0,0,1,2.71-2.83H95.24a2.71,2.71,0,0,1,2.71,2.84l-2,42A0.51,0.51,0,0,1,95.38,67.05Z"/><polygon class="cls-3" points="91.26 62.44 28.02 62.44 26.84 26.3 92.56 26.3 91.26 62.44"/><path class="cls-4" d="M24.47,67.21H93.63c1.46,0,3,.74,3.1,1.54l9,23.65A2.71,2.71,0,0,1,103,95.23L14,95a2.71,2.71,0,0,1-2.71-2.84l11.51-24A2.35,2.35,0,0,1,24.47,67.21Z"/><path class="cls-2" d="M73.67,92.94L42.73,93a0.91,0.91,0,0,1-.91-0.91l1.69-8.49a0.91,0.91,0,0,1,.91-0.91H73a0.91,0.91,0,0,1,.91.91L74.58,92A0.91,0.91,0,0,1,73.67,92.94Z"/><circle class="cls-4" cx="59.54" cy="24.12" r="0.84"/><line class="cls-5" x1="21" y1="79.5" x2="97" y2="79.5"/><line class="cls-5" x1="96.2" y1="76.27" x2="22.27" y2="76.09"/><polyline class="cls-5" points="22.91 73.61 92.05 73.97 93.08 76.5 95 76.5"/><line class="cls-5" x1="24.53" y1="71.24" x2="94.68" y2="71.59"/><line class="cls-5" x1="93.82" y1="69.38" x2="25.35" y2="69.16"/><line class="cls-5" x1="43" y1="81.5" x2="68" y2="81.5"/><path class="cls-2" d="M100.49,94H15.12c-3.73,0-3.87-1.83-3.87-1.83V92.3A2.75,2.75,0,0,0,14,95.12L103,95.39a2.87,2.87,0,0,0,2.71-3C104.43,94.83,100.49,94,100.49,94Z"/></svg>