<svg id="Printer" xmlns="http://www.w3.org/2000/svg" viewBox="0 0 117 117"><defs><style>.cls-1,.cls-6,.cls-7{fill:#fff;}.cls-2,.cls-5{fill:#cc993e;}.cls-3{fill:none;}.cls-3,.cls-5,.cls-8{stroke:#fff;}.cls-3,.cls-5,.cls-6,.cls-7,.cls-8{stroke-miterlimit:10;}.cls-4,.cls-8{fill:#e5b34d;}.cls-6{stroke:#e5b34d;}.cls-7{stroke:#dabf70;}</style></defs><title>Djaroo_icons_117px</title><rect class="cls-1" width="117" height="117"/><path class="cls-2" d="M90.59,47.22l-48-.13a5.59,5.59,0,0,1-2.15-.75,3.32,3.32,0,0,1,0-.78l-0.26-.1-1.52-2.41s-0.76-1.3-3.21-1.32l-9.55-.17s-4.42-.22-6.35,1c-1.78,1.54-8,7-8,7A1.56,1.56,0,0,0,11,51c-0.07.85-.39,4.83-0.48,11a0.76,0.76,0,0,0,.15.48,129.28,129.28,0,0,0,3.67,23.9c0.06,0,.75,3.06,5.53,3.09,1.63,0,16.25.16,16.25,0.16a0.54,0.54,0,0,0,.45-0.26s0.2,0.26.2,0.26l46,0.39L83,89.86,83.24,90l13.23,0.06s4.45,0.33,5.78-2.89a108.91,108.91,0,0,0,4-24,0.71,0.71,0,0,0-.1-0.16,1.08,1.08,0,0,0,.29-1l-0.1-3.64s0.36-.62-0.52-1c-0.72-.84-7.25-8-7.25-8S97.9,48,95.37,48C95.43,48.06,94.91,47.38,90.59,47.22Z"/><path class="cls-3" d="M10.8,62.59S11.68,64,17.85,64s81.58,0.44,81.58.44,5.83-.13,6.73-1.45"/><path class="cls-4" d="M36.05,42.57l-9.65-.2s-4.32-.27-5.26.61-6.77,5.86-6.77,5.86-1.79,1.3.55,1.59,7.54,0.39,14.2.42c0.85,0,3.09,0,4.68,3.41,0.26,0.52,1.75,4.35,4.78,4.19l61.13,0.16s4.68-.23,3.8-1.27c-1-1.14-7.71-8.81-7.71-8.81S92.53,48.26,88,48.3c-2.08,0-45.31,0-45.31,0a5.2,5.2,0,0,1-3.92-3.81A3.34,3.34,0,0,0,36.05,42.57Z"/><path class="cls-5" d="M82.48,83l-45.21-.15c-1.36,0-2.35-2.81-2.22-4.17l1-9.65H83.47l0.88,9.82C84.44,80,83.61,83,82.48,83Z"/><path class="cls-4" d="M82.48,81.27l-45.21-.15A2.31,2.31,0,0,1,35,78.58L36.09,67.3H83.47l0.94,11.89A1.93,1.93,0,0,1,82.48,81.27Z"/><polygon class="cls-6" points="59.62 76.63 37.68 76.73 38.36 68.7 59.71 68.7 59.62 76.63"/><path class="cls-7" d="M69.19,72.6H65.53c-0.13-2.16-.22-3.53-0.24-4h3.42C68.77,69.07,68.93,70.44,69.19,72.6Z"/><path class="cls-7" d="M72.63,72.6H69.15c-0.25-2.16-.41-3.53-0.47-4h3.41Z"/><path class="cls-7" d="M76,72.61H72.6l-0.54-4h3.41Z"/><path class="cls-7" d="M69.65,76.54H65.73c0-.46-0.08-1.83-0.2-4h3.66C69.43,74.71,69.59,76.08,69.65,76.54Z"/><path class="cls-7" d="M73.16,76.55H69.61c-0.05-.46-0.21-1.83-0.46-4h3.48Z"/><path class="cls-7" d="M76.5,76.56H73.13l-0.54-4H76Z"/><path class="cls-4" d="M100.74,77.3l0.13,0a0.39,0.39,0,0,1-.35-0.43l0.29-4.49a0.39,0.39,0,0,1,.43-0.35h0a0.39,0.39,0,0,1,.35.43L101.3,77A0.52,0.52,0,0,1,100.74,77.3Z"/><path class="cls-4" d="M100.34,79h1s0.21-.28.21-0.17,0,1.8,0,1.8l-0.28.2-0.82,0-0.31-.3,0.1-1.69S100.17,79,100.34,79Z"/><path class="cls-2" d="M41.38,42.67l0.36-13.84a2.06,2.06,0,0,1,2.08-1.89c1.92,0,31.2.23,32,.23s2.57,0.1,2.66,1.89l1,0.06,0.19,4.45-0.26.72-0.84,0,0.13,8.48Z"/><path class="cls-8" d="M40.91,45.43l0-2.43a2.24,2.24,0,0,1,2.21-2.21c2.15,0,33.67.1,33.67,0.1s2.86-.55,2.8,2.89c0,0.72,0,1.29,0,1.73a1.28,1.28,0,0,1-1.29,1.25l-36.13-.18A1.17,1.17,0,0,1,40.91,45.43Z"/><path class="cls-7" d="M71.85,72.6H68.19c-0.13-2.16-.22-3.53-0.24-4h3.42C71.43,69.07,71.59,70.44,71.85,72.6Z"/><path class="cls-7" d="M75.29,72.6H71.81c-0.25-2.16-.41-3.53-0.47-4h3.41Z"/><path class="cls-7" d="M78.65,72.61H75.26l-0.54-4h3.41Z"/><path class="cls-7" d="M72.3,76.54H68.39c0-.46-0.08-1.83-0.2-4h3.66C72.09,74.71,72.25,76.08,72.3,76.54Z"/><path class="cls-7" d="M75.82,76.55H72.27c-0.05-.46-0.21-1.83-0.46-4h3.48Z"/><path class="cls-7" d="M79.16,76.56H75.79l-0.54-4h3.39Z"/></svg>