<svg id="Smart_phone" xmlns="http://www.w3.org/2000/svg" viewBox="0 0 117 117"><defs><style>.cls-1,.cls-3{fill:#fff;}.cls-2{fill:#e5b34d;}.cls-3{stroke:#cc993e;stroke-miterlimit:10;}.cls-4{fill:#cc993e;}</style></defs><title>Djaroo_icons_117px</title><rect class="cls-1" width="117" height="117"/><rect class="cls-2" x="39" y="20.51" width="39.26" height="76.25" rx="7" ry="7"/><rect class="cls-3" x="42.25" y="33.75" width="32.93" height="49.92"/><circle class="cls-4" cx="58.89" cy="89.99" r="4.07"/><path class="cls-2" d="M60.4,89.34a1.1,1.1,0,0,1,1.67,1A3.12,3.12,0,0,1,57.53,93a1.09,1.09,0,0,1,0-1.9Z"/><ellipse class="cls-4" cx="58.8" cy="27.55" rx="3.47" ry="0.74"/><circle class="cls-4" cx="52.26" cy="27.64" r="1.08"/><polygon class="cls-4" points="38.74 45.36 39 45.6 39 42.71 38.74 42.87 38.74 45.36"/><polygon class="cls-4" points="38.74 38.58 39 38.82 39 35.93 38.74 36.09 38.74 38.58"/><polygon class="cls-4" points="65.86 20.25 65.33 20.5 71.69 20.5 71.34 20.25 65.86 20.25"/></svg>