<svg id="Smart_watch" xmlns="http://www.w3.org/2000/svg" viewBox="0 0 117 117"><defs><style>.cls-1{fill:#fff;}.cls-2,.cls-4{fill:#cc993e;}.cls-2,.cls-5{stroke:#fff;stroke-miterlimit:10;}.cls-3,.cls-5{fill:#e5b34d;}</style></defs><title>Djaroo_icons_117px</title><rect class="cls-1" y="-0.5" width="117" height="117"/><path class="cls-2" d="M42.5,41.5V38.76a0.7,0.7,0,0,0,.79.74H46.5v2h-4Z"/><path class="cls-2" d="M72.5,41.5V38.76s1,0.74.17,0.74H68.5v2h4Z"/><path class="cls-3" d="M42.73,38.26s1.73-8.18,4.2-9.35l1.63-.55s-1.07,3.12-1.27,9.88Z"/><path class="cls-4" d="M48.6,28.62L48.72,29h18.7a0.87,0.87,0,0,1,.25-0.34,5,5,0,0,1,1.79.45s2,0.77,4,9.22c0-.06-5.3-0.06-5.23,0a18.71,18.71,0,0,0,0,1.91h-21S47.24,31.51,48.6,28.62Z"/><path class="cls-3" d="M73.52,38.26s-1.73-8.18-4.2-9.35l-1.62-.55s1.07,3.12,1.27,9.88Z"/><path class="cls-2" d="M42.5,78.5v0.95s-0.05,2.05.79,2.05H46.5v-3h-4Z"/><path class="cls-2" d="M72.5,78.5v0.95s1,2.05.17,2.05H68.5v-3h4Z"/><path class="cls-3" d="M42.73,79.95s1.73,8.18,4.2,9.35l1.63,0.55S47.48,86.73,47.28,80Z"/><path class="cls-4" d="M48.6,90.49L48.72,91h18.7a1.69,1.69,0,0,1,.25-0.55c0.25,0,.91-0.5,1.79-0.89,0,0,2-1,4-9.45,0,0.06-5.3,0-5.23-.08s0-2,0-2l-21,.43S47.24,87.6,48.6,90.49Z"/><path class="cls-3" d="M73.52,79.95s-1.73,8.18-4.2,9.35l-1.62.55S68.76,86.73,69,80Z"/><rect class="cls-4" x="77.09" y="56.4" width="0.54" height="6.07"/><path class="cls-4" d="M77,56.4l0.77,0.5A39.07,39.07,0,0,1,77.61,62S77,62.46,77,62.46V56.4Z"/><path class="cls-5" d="M52.83,40.06H63A14.09,14.09,0,0,1,77.09,54.15v12.1A12.16,12.16,0,0,1,64.93,78.41H50.5A11.76,11.76,0,0,1,38.74,66.65V54.15A14.09,14.09,0,0,1,52.83,40.06Z"/><path class="cls-4" d="M53.57,40.8h8.69A14.09,14.09,0,0,1,76.35,54.89V65.51A12.16,12.16,0,0,1,64.19,77.67H51.24A11.76,11.76,0,0,1,39.48,65.91v-11A14.09,14.09,0,0,1,53.57,40.8Z"/><rect class="cls-1" x="43.16" y="46.22" width="29.5" height="26.03"/><polygon class="cls-4" points="57.92 51 61.76 51 59.84 55.05 57.92 59.3 56 55.15 54.08 51 57.92 51"/><polygon class="cls-4" points="50.26 54.69 52.18 51.36 55.05 55.24 57.92 59.11 53.13 58.56 48.34 58.02 50.26 54.69"/><polygon class="cls-3" points="50.26 63.54 48.34 60.21 53.13 59.66 57.92 59.11 55.05 62.99 52.18 66.86 50.26 63.54"/><polygon class="cls-3" points="57.92 69 54.08 69 56 64.06 57.92 59.37 59.84 64.19 61.76 69 57.92 69"/><path class="cls-3" d="M59.55,60.05l3.07,0.35,3.65,0.42-1.35,2.34-1.35,2.34-2.18-2.95-1.84-2.49m-1.63-.94L60.79,63l2.86,3.87,1.92-3.33,1.92-3.33-4.79-.55-4.79-.55h0Z"/><path class="cls-4" d="M63.57,52.74l1.35,2.34,1.35,2.34-3.64.41-3.08.35,1.84-2.48,2.19-3m0.08-1.37-2.87,3.87-2.87,3.87,4.79-.55L67.49,58,65.57,54.7l-1.92-3.33h0Z"/></svg>