<svg id="Bluetooth_speakers" xmlns="http://www.w3.org/2000/svg" viewBox="0 0 117 117"><defs><style>.cls-1{fill:#fff;}.cls-2{fill:#e5b34d;}.cls-3{fill:#cc993e;}.cls-4{fill:none;stroke:#fff;stroke-linecap:round;stroke-linejoin:round;stroke-width:0.5px;}</style></defs><title>Djaroo_icons_117px</title><rect class="cls-1" y="0.5" width="117" height="117"/><rect class="cls-2" x="12.99" y="45.49" width="91.01" height="26.93" rx="13.46" ry="13.46"/><ellipse class="cls-3" cx="43.27" cy="60.01" rx="7.53" ry="7.78"/><ellipse class="cls-3" cx="24.32" cy="60.01" rx="7.53" ry="7.78"/><ellipse class="cls-3" cx="75.81" cy="60.01" rx="7.53" ry="7.78"/><ellipse class="cls-3" cx="94.41" cy="60.09" rx="7.53" ry="7.78"/><path class="cls-4" d="M94.68,72.42l-71.16.12c-18.23-5.38-8.72-20.27.54-26.8l69.42,0.07C106.6,49.8,107.64,67.55,94.68,72.42Z"/><path class="cls-4" d="M19.69,47.4l78.1,0.27"/><path class="cls-4" d="M16.31,50.19L101,50.35"/><path class="cls-4" d="M14.27,53.34h88.58"/><path class="cls-4" d="M13.49,56.39h90.1"/><path class="cls-4" d="M13.2,59.53l90.6,0"/><path class="cls-4" d="M13.48,62.64l90,0"/><path class="cls-4" d="M14.64,65.93l88.07-.33"/><path class="cls-4" d="M17.17,69.19l83.67-.86"/><path class="cls-4" d="M20.46,71.49q38.73-.38,77.46-0.79"/><path class="cls-4" d="M29.07,45.75c-12.95,4.42-13.52,22.12-.52,26.79"/><path class="cls-4" d="M34.41,45.75c-11.47,5-11.91,21.48-.46,26.77"/><path class="cls-4" d="M39.54,45.76c-6.15,8-12.84,19-.35,26.76"/><path class="cls-4" d="M44.49,45.76C37,52.25,36.69,66,44.28,72.51"/><path class="cls-4" d="M49.33,45.77c-5.28,7.13-5.53,19.63,0,26.73"/><path class="cls-4" d="M54.07,45.77c-3,4.32-1.18,22.27.14,26.72"/><path class="cls-4" d="M58.78,45.78c0.2,4.45,1.5,21.94.33,26.7"/><path class="cls-4" d="M63.48,45.78c3.41,4.57,4.18,21.6.53,26.69"/><path class="cls-4" d="M68.23,45.79c4.7,7.25,4.61,19.11.71,26.67"/><path class="cls-4" d="M73.06,45.79c6.84,6.56,6.94,19.59.88,26.66"/><path class="cls-4" d="M78,45.8c8.76,5.88,9.13,20.09,1,26.64"/><path class="cls-4" d="M83.15,45.8c10.61,5,11.41,20.82,1.13,26.63"/><path class="cls-4" d="M88.49,45.81c12,4.43,13,21.33,1.19,26.62"/><path class="cls-3" d="M90.5,50H57.22l-0.13-4H90.73a12.58,12.58,0,0,1,12.36,8.9v0.38S99.86,50,90.5,50Z"/><path class="cls-3" d="M26.26,50H59.54l0.13-4H26a12.58,12.58,0,0,0-12.36,8.9v0.38S16.9,50,26.26,50Z"/><path class="cls-3" d="M53.69,46s-0.65,14,0,28H64.48s1.73-16,0-28H53.69Z"/><circle class="cls-2" cx="59.71" cy="60.89" r="4.2"/><ellipse class="cls-2" cx="59.43" cy="49.85" rx="4.12" ry="0.9"/><ellipse class="cls-2" cx="59.43" cy="46.85" rx="2.76" ry="0.6"/><polyline class="cls-1" points="65.13 44.95 64.48 45.08 64.59 45.88"/><polyline class="cls-1" points="53.04 44.95 53.69 45.08 53.58 45.88"/><polyline class="cls-1" points="65.13 72.66 64.48 72.53 64.59 71.73"/><polyline class="cls-1" points="53.16 72.63 53.82 72.57 53.79 71.76"/></svg>