<svg id="Tablet" xmlns="http://www.w3.org/2000/svg" viewBox="0 0 117 117"><defs><style>.cls-1{fill:#fff;}.cls-2{fill:#e5b34d;}.cls-3{fill:#cc993e;}</style></defs><title>Djaroo_icons_117px</title><rect class="cls-1" width="117" height="117"/><path class="cls-2" d="M99.28,38.84V77.61a8,8,0,0,1-8,8H25.72a8,8,0,0,1-8-8V38.84a8,8,0,0,1,8-8H91.28A8,8,0,0,1,99.28,38.84Z"/><rect class="cls-1" x="33.73" y="25.55" width="49.39" height="65.35" transform="translate(0.2 116.65) rotate(-90)"/><path class="cls-3" d="M91.23,83H25.62V33.4H91.23V83Zm-65.35-.26H91V33.66H25.88V82.79Z"/><circle class="cls-3" cx="95.43" cy="58.22" r="2.22"/><path class="cls-2" d="M95.08,57.74a0.6,0.6,0,0,1,.54-0.91,1.7,1.7,0,0,1,1.45,2.48,0.6,0.6,0,0,1-1,0Z"/><circle class="cls-3" cx="22.05" cy="58.22" r="0.97"/></svg>